<svg xmlns="http://www.w3.org/2000/svg" width="96" height="39" fill="none" xmlns:v="https://vecta.io/nano"><path d="M49.91 5.36a2.29 2.29 0 0 0 2.279-2.292A2.29 2.29 0 0 0 49.909.774c-1.255 0-2.28 1.02-2.28 2.292.006 1.265 1.024 2.292 2.28 2.292zm9.096 20.194h.013c.882 0 1.654-.218 2.26-.514.605-.29 1.036-.63 1.25-.925.135-.193.225-.43.225-.687 0-.186-.045-.385-.135-.578-.225-.443-.69-.655-1.107-.66-.077 0-.154.007-.232.026-.225.058-.386.14-.54.193-.16.05-.328.096-.624.096-.483 0-.773-.193-.966-.385-.04-.038-.328-.41-.438-.873-.18-.764-.193-1.856-.2-2.62a6726.43 6726.43 0 0 0 .013-16.136c.006-.57-.3-1.034-.695-1.303-.405-.283-.914-.398-1.43-.405-.52.006-1.036.135-1.455.405-.412.27-.715.72-.715 1.278v18.274c0 1.02.283 2.215 1.037 3.172.74.95 1.963 1.644 3.74 1.644zm8.78-15.045c1.075-1.548 2.208-1.734 2.736-1.74h.007c.863.006 1.745.578 2.002 1.94a4 4 0 0 1 .058.661c0 .938-.354 1.746-.895 2.37-1.287 1.438-3.084 1.85-4.976 2.048l-.007-.507c0-1.682.232-3.576 1.075-4.77zm-2.84 12.86c1.4 1.348 3.335 2.17 5.742 2.17h.006c1.307 0 2.523-.23 3.43-.6.457-.193.837-.417 1.12-.693.277-.27.464-.597.464-.97 0-.058-.006-.116-.013-.18-.1-.63-.605-1.053-1.19-1.047-.142 0-.3.02-.43.07-.708.225-1.397.353-2.247.353-.232 0-.483-.013-.747-.032-1.783-.14-2.826-1.22-3.463-2.312-.316-.546-.515-1.098-.637-1.522l-.116-.47c2.433-.103 4.538-.392 6.528-1.45 1.017-.57 2.272-1.496 2.93-2.774.406-.835.618-1.79.624-2.665 0-.276-.026-.54-.064-.8-.412-2.357-2.588-4.148-5.96-4.135-2.343 0-5.362.93-7.197 3.782-.708 1.117-1.66 3.255-1.66 5.952 0 .642.058 1.323.18 2.023.4 2.087 1.294 3.943 2.704 5.297zm-41.695 1.496c.406.276.92.398 1.423.405.52 0 1.043-.128 1.455-.405.412-.27.714-.72.714-1.278l.006-10.043c.032-.77.232-1.81.69-2.62.463-.815 1.133-1.387 2.17-1.393.483 0 .81.148 1.075.392.406.366.637.976.766 1.592.122.616.135 1.233.135 1.58v10.46c0 .584.315 1.04.74 1.3.43.27.972.392 1.506.398.547 0 1.1-.128 1.54-.398.438-.263.766-.713.766-1.284V13.54c.032-.77.232-1.804.69-2.613.463-.815 1.127-1.387 2.17-1.393.476 0 .81.148 1.082.392.4.366.637.976.76 1.592s.135 1.233.135 1.58l.006 10.46c-.006.584.31 1.04.74 1.3s.965.392 1.506.398c.554 0 1.1-.128 1.538-.398.438-.263.766-.713.766-1.284v-9.85c0-2.498-.483-4.36-1.403-5.618-.908-1.26-2.26-1.875-3.856-1.87-1.532 0-2.704.745-3.528 1.592-.56.584-.972 1.214-1.242 1.714-.373-1.002-.92-1.78-1.61-2.33-.824-.66-1.854-.976-3.013-.976-1.97 0-3.315 1.207-4.14 2.318V8.46c.006-.57-.283-1.027-.695-1.303-.405-.276-.914-.405-1.43-.405s-1.036.128-1.455.405c-.412.263-.714.713-.714 1.278v15.128a1.59 1.59 0 0 0 .708 1.303zm28.105-17.71c-.406-.276-.92-.405-1.43-.405-.515 0-1.036.128-1.448.405-.412.263-.72.713-.715 1.278v15.128c0 .572.3 1.034.695 1.303.406.276.92.398 1.43.405.52 0 1.043-.128 1.455-.405.412-.27.72-.72.715-1.278V8.454a1.55 1.55 0 0 0-.702-1.297zM95.9 14.958c-.013-.103-.084-.186-.187-.218s-.206 0-.277.07l-.187.193s-.315.32-.573.565l-2.285 2.023a54.25 54.25 0 0 1-2.536 1.978c-.02-.282-.058-.552-.122-.803-.258-1.047-.863-1.843-1.616-2.48-1.127-.957-2.562-1.58-3.747-2.267-.586-.34-1.12-.694-1.506-1.092-.386-.392-.637-.828-.715-1.36-.013-.096-.02-.2-.02-.302 0-.552.212-1.13.657-1.56.238-.23.96-.7 1.963-.7 1.255 0 2.31.552 2.9.552.67.006 1.25-.385 1.43-1.04.032-.128.052-.257.052-.392 0-.745-.612-1.432-1.455-1.644 0 0-.76-.257-2.356-.257-2.227 0-4.05.552-5.337 1.522-1.28.963-2.008 2.356-2.002 3.955 0 .443.052.9.16 1.36.476 1.978 2.414 3.044 4.197 4.007l2.427 1.413c.663.488 1.088 1.002 1.172 1.592.02.096.026.205.026.295 0 .546-.22 1.047-.682 1.445-.47.385-1.197.66-2.24.68h-.097c-1.133 0-2.105-.327-2.742-.6a1.92 1.92 0 0 0-.83-.199c-.682-.013-1.25.456-1.34 1.13l-.013.2c0 .482.258.886.612 1.188.528.47 1.28.777 1.996.99-7.873 3.962-18.816 7.538-32.65 7.538-13.97 0-24.983-3.647-32.875-7.654 1.63-.308 2.942-.976 3.92-1.862a6.38 6.38 0 0 0 2.092-4.752c0-.41-.04-.822-.11-1.233-.245-1.368-.985-2.453-1.938-3.34-1.43-1.33-3.347-2.267-4.937-3.204-.798-.462-1.513-.93-2.047-1.432-.534-.494-.876-1.02-.98-1.612-.026-.16-.045-.327-.045-.494a3.07 3.07 0 0 1 .933-2.19c.637-.616 1.635-1.066 3.103-1.066.792 0 1.725.135 2.8.45.315.1.6.135.863.14.74.013 1.288-.398 1.513-.99a1.7 1.7 0 0 0 .122-.623c0-.507-.264-.937-.637-1.233-.373-.302-.856-.5-1.358-.6-1.004-.2-2.1-.34-3.238-.34h-.032c-3.058 0-5.28.86-6.74 2.15-1.455 1.29-2.13 2.992-2.13 4.617 0 .36.032.72.097 1.066.45 2.376 2.4 3.89 4.397 5.124 2.002 1.22 4.08 2.215 4.88 3.34.43.597.637 1.323.637 2.016 0 .706-.22 1.387-.612 1.87-.753.912-2.176 1.528-3.7 1.528-.966 0-1.97-.238-2.878-.783a5.19 5.19 0 0 0-.206-.116 59.57 59.57 0 0 1-5.291-3.885c-1.017-.84-1.777-1.535-2.285-2.023L.74 15.03l-.187-.193c-.07-.07-.18-.103-.277-.07-.097.026-.167.11-.187.218-.05.38-.1.867-.1 1.426v.167c.026 1.45.515 2.568 1.828 3.788.315.328 17.922 18.326 46.175 18.326 28.253-.006 45.86-18.005 46.175-18.326 1.313-1.22 1.796-2.337 1.822-3.788v-.167c0-.59-.04-1.072-.1-1.45z" fill="#ff7020"/></svg>